<?xml version="1.0" encoding="UTF-8" standalone="no"?>
<!DOCTYPE svg PUBLIC "-//W3C//DTD SVG 1.1//EN"
 "http://www.w3.org/Graphics/SVG/1.1/DTD/svg11.dtd">
<!-- Generated by graphviz version 2.43.0 (0)
 -->
<!-- Title: %3 Pages: 1 -->
<svg width="970pt" height="548pt"
 viewBox="0.00 0.00 970.00 548.00" xmlns="http://www.w3.org/2000/svg" xmlns:xlink="http://www.w3.org/1999/xlink">
<g id="graph0" class="graph" transform="scale(1 1) rotate(0) translate(4 544)">
<title>%3</title>
<polygon fill="white" stroke="transparent" points="-4,4 -4,-544 966,-544 966,4 -4,4"/>
<!-- [root] aws_autoscaling_group.terrababa_asg (expand) -->
<g id="node1" class="node">
<title>[root] aws_autoscaling_group.terrababa_asg (expand)</title>
<polygon fill="none" stroke="black" points="655,-396 367,-396 367,-360 655,-360 655,-396"/>
<text text-anchor="middle" x="511" y="-374.3" font-family="Times,serif" font-size="14.00">aws_autoscaling_group.terrababa_asg</text>
</g>
<!-- [root] aws_launch_configuration.terrababa_launch_config (expand) -->
<g id="node3" class="node">
<title>[root] aws_launch_configuration.terrababa_launch_config (expand)</title>
<polygon fill="none" stroke="black" points="857,-324 479,-324 479,-288 857,-288 857,-324"/>
<text text-anchor="middle" x="668" y="-302.3" font-family="Times,serif" font-size="14.00">aws_launch_configuration.terrababa_launch_config</text>
</g>
<!-- [root] aws_autoscaling_group.terrababa_asg (expand)&#45;&gt;[root] aws_launch_configuration.terrababa_launch_config (expand) -->
<g id="edge1" class="edge">
<title>[root] aws_autoscaling_group.terrababa_asg (expand)&#45;&gt;[root] aws_launch_configuration.terrababa_launch_config (expand)</title>
<path fill="none" stroke="black" d="M549.41,-359.88C570.87,-350.31 597.8,-338.3 620.57,-328.15"/>
<polygon fill="black" stroke="black" points="622.01,-331.34 629.72,-324.07 619.16,-324.94 622.01,-331.34"/>
</g>
<!-- [root] aws_lb_target_group.terrababa_asg (expand) -->
<g id="node7" class="node">
<title>[root] aws_lb_target_group.terrababa_asg (expand)</title>
<polygon fill="none" stroke="black" points="601.5,-252 330.5,-252 330.5,-216 601.5,-216 601.5,-252"/>
<text text-anchor="middle" x="466" y="-230.3" font-family="Times,serif" font-size="14.00">aws_lb_target_group.terrababa_asg</text>
</g>
<!-- [root] aws_autoscaling_group.terrababa_asg (expand)&#45;&gt;[root] aws_lb_target_group.terrababa_asg (expand) -->
<g id="edge2" class="edge">
<title>[root] aws_autoscaling_group.terrababa_asg (expand)&#45;&gt;[root] aws_lb_target_group.terrababa_asg (expand)</title>
<path fill="none" stroke="black" d="M493.08,-359.59C484.43,-349.99 474.89,-337.32 470,-324 462.77,-304.31 462.08,-280.5 463.03,-262.47"/>
<polygon fill="black" stroke="black" points="466.53,-262.56 463.76,-252.33 459.55,-262.05 466.53,-262.56"/>
</g>
<!-- [root] data.aws_subnets.default (expand) -->
<g id="node10" class="node">
<title>[root] data.aws_subnets.default (expand)</title>
<polygon fill="none" stroke="black" points="401,-180 203,-180 203,-144 401,-144 401,-180"/>
<text text-anchor="middle" x="302" y="-158.3" font-family="Times,serif" font-size="14.00">data.aws_subnets.default</text>
</g>
<!-- [root] aws_autoscaling_group.terrababa_asg (expand)&#45;&gt;[root] data.aws_subnets.default (expand) -->
<g id="edge3" class="edge">
<title>[root] aws_autoscaling_group.terrababa_asg (expand)&#45;&gt;[root] data.aws_subnets.default (expand)</title>
<path fill="none" stroke="black" d="M467.5,-359.86C423.85,-340.36 358.07,-304.3 322,-252 309.47,-233.82 304.65,-209.05 302.87,-190.25"/>
<polygon fill="black" stroke="black" points="306.35,-189.96 302.14,-180.24 299.37,-190.47 306.35,-189.96"/>
</g>
<!-- [root] aws_instance.terrababa (expand) -->
<g id="node2" class="node">
<title>[root] aws_instance.terrababa (expand)</title>
<polygon fill="none" stroke="black" points="962,-396 776,-396 776,-360 962,-360 962,-396"/>
<text text-anchor="middle" x="869" y="-374.3" font-family="Times,serif" font-size="14.00">aws_instance.terrababa</text>
</g>
<!-- [root] aws_security_group.terrababa_sg (expand) -->
<g id="node9" class="node">
<title>[root] aws_security_group.terrababa_sg (expand)</title>
<polygon fill="none" stroke="black" points="876,-252 620,-252 620,-216 876,-216 876,-252"/>
<text text-anchor="middle" x="748" y="-230.3" font-family="Times,serif" font-size="14.00">aws_security_group.terrababa_sg</text>
</g>
<!-- [root] aws_instance.terrababa (expand)&#45;&gt;[root] aws_security_group.terrababa_sg (expand) -->
<g id="edge4" class="edge">
<title>[root] aws_instance.terrababa (expand)&#45;&gt;[root] aws_security_group.terrababa_sg (expand)</title>
<path fill="none" stroke="black" d="M873.38,-359.98C877.28,-340.78 880.39,-309.44 866,-288 856.78,-274.26 843.08,-264.03 828.26,-256.44"/>
<polygon fill="black" stroke="black" points="829.45,-253.14 818.91,-252.05 826.47,-259.47 829.45,-253.14"/>
</g>
<!-- [root] aws_launch_configuration.terrababa_launch_config (expand)&#45;&gt;[root] aws_security_group.terrababa_sg (expand) -->
<g id="edge5" class="edge">
<title>[root] aws_launch_configuration.terrababa_launch_config (expand)&#45;&gt;[root] aws_security_group.terrababa_sg (expand)</title>
<path fill="none" stroke="black" d="M687.78,-287.7C697.75,-278.97 710.01,-268.24 720.86,-258.75"/>
<polygon fill="black" stroke="black" points="723.23,-261.32 728.45,-252.1 718.62,-256.06 723.23,-261.32"/>
</g>
<!-- [root] aws_lb.terrababa_lb (expand) -->
<g id="node4" class="node">
<title>[root] aws_lb.terrababa_lb (expand)</title>
<polygon fill="none" stroke="black" points="242,-252 82,-252 82,-216 242,-216 242,-252"/>
<text text-anchor="middle" x="162" y="-230.3" font-family="Times,serif" font-size="14.00">aws_lb.terrababa_lb</text>
</g>
<!-- [root] aws_security_group.terrababa_alb_sg (expand) -->
<g id="node8" class="node">
<title>[root] aws_security_group.terrababa_alb_sg (expand)</title>
<polygon fill="none" stroke="black" points="338,-108 54,-108 54,-72 338,-72 338,-108"/>
<text text-anchor="middle" x="196" y="-86.3" font-family="Times,serif" font-size="14.00">aws_security_group.terrababa_alb_sg</text>
</g>
<!-- [root] aws_lb.terrababa_lb (expand)&#45;&gt;[root] aws_security_group.terrababa_alb_sg (expand) -->
<g id="edge6" class="edge">
<title>[root] aws_lb.terrababa_lb (expand)&#45;&gt;[root] aws_security_group.terrababa_alb_sg (expand)</title>
<path fill="none" stroke="black" d="M166.1,-215.87C171.92,-191.56 182.63,-146.82 189.53,-118.01"/>
<polygon fill="black" stroke="black" points="192.96,-118.73 191.88,-108.19 186.15,-117.1 192.96,-118.73"/>
</g>
<!-- [root] aws_lb.terrababa_lb (expand)&#45;&gt;[root] data.aws_subnets.default (expand) -->
<g id="edge7" class="edge">
<title>[root] aws_lb.terrababa_lb (expand)&#45;&gt;[root] data.aws_subnets.default (expand)</title>
<path fill="none" stroke="black" d="M196.25,-215.88C215.06,-206.47 238.58,-194.71 258.67,-184.67"/>
<polygon fill="black" stroke="black" points="260.24,-187.79 267.62,-180.19 257.11,-181.53 260.24,-187.79"/>
</g>
<!-- [root] aws_lb_listener.http (expand) -->
<g id="node5" class="node">
<title>[root] aws_lb_listener.http (expand)</title>
<polygon fill="none" stroke="black" points="239.5,-324 80.5,-324 80.5,-288 239.5,-288 239.5,-324"/>
<text text-anchor="middle" x="160" y="-302.3" font-family="Times,serif" font-size="14.00">aws_lb_listener.http</text>
</g>
<!-- [root] aws_lb_listener.http (expand)&#45;&gt;[root] aws_lb.terrababa_lb (expand) -->
<g id="edge8" class="edge">
<title>[root] aws_lb_listener.http (expand)&#45;&gt;[root] aws_lb.terrababa_lb (expand)</title>
<path fill="none" stroke="black" d="M160.49,-287.7C160.71,-279.98 160.98,-270.71 161.23,-262.11"/>
<polygon fill="black" stroke="black" points="164.72,-262.2 161.51,-252.1 157.73,-262 164.72,-262.2"/>
</g>
<!-- [root] aws_lb_listener_rule.terrababa_asg (expand) -->
<g id="node6" class="node">
<title>[root] aws_lb_listener_rule.terrababa_asg (expand)</title>
<polygon fill="none" stroke="black" points="349,-396 81,-396 81,-360 349,-360 349,-396"/>
<text text-anchor="middle" x="215" y="-374.3" font-family="Times,serif" font-size="14.00">aws_lb_listener_rule.terrababa_asg</text>
</g>
<!-- [root] aws_lb_listener_rule.terrababa_asg (expand)&#45;&gt;[root] aws_lb_listener.http (expand) -->
<g id="edge9" class="edge">
<title>[root] aws_lb_listener_rule.terrababa_asg (expand)&#45;&gt;[root] aws_lb_listener.http (expand)</title>
<path fill="none" stroke="black" d="M201.4,-359.7C194.88,-351.39 186.93,-341.28 179.75,-332.14"/>
<polygon fill="black" stroke="black" points="182.37,-329.81 173.44,-324.1 176.87,-334.13 182.37,-329.81"/>
</g>
<!-- [root] aws_lb_listener_rule.terrababa_asg (expand)&#45;&gt;[root] aws_lb_target_group.terrababa_asg (expand) -->
<g id="edge10" class="edge">
<title>[root] aws_lb_listener_rule.terrababa_asg (expand)&#45;&gt;[root] aws_lb_target_group.terrababa_asg (expand)</title>
<path fill="none" stroke="black" d="M245.28,-359.87C290.69,-334.18 376.47,-285.65 426.67,-257.25"/>
<polygon fill="black" stroke="black" points="428.64,-260.16 435.62,-252.19 425.19,-254.07 428.64,-260.16"/>
</g>
<!-- [root] data.aws_vpc.default (expand) -->
<g id="node11" class="node">
<title>[root] data.aws_vpc.default (expand)</title>
<polygon fill="none" stroke="black" points="525.5,-108 358.5,-108 358.5,-72 525.5,-72 525.5,-108"/>
<text text-anchor="middle" x="442" y="-86.3" font-family="Times,serif" font-size="14.00">data.aws_vpc.default</text>
</g>
<!-- [root] aws_lb_target_group.terrababa_asg (expand)&#45;&gt;[root] data.aws_vpc.default (expand) -->
<g id="edge11" class="edge">
<title>[root] aws_lb_target_group.terrababa_asg (expand)&#45;&gt;[root] data.aws_vpc.default (expand)</title>
<path fill="none" stroke="black" d="M463.11,-215.87C459.01,-191.67 451.5,-147.21 446.63,-118.39"/>
<polygon fill="black" stroke="black" points="450.02,-117.47 444.91,-108.19 443.12,-118.63 450.02,-117.47"/>
</g>
<!-- [root] var.server_port -->
<g id="node15" class="node">
<title>[root] var.server_port</title>
<polygon fill="none" stroke="black" points="653.5,-180 534.5,-180 534.5,-144 659.5,-144 659.5,-174 653.5,-180"/>
<polyline fill="none" stroke="black" points="653.5,-180 653.5,-174 "/>
<polyline fill="none" stroke="black" points="659.5,-174 653.5,-174 "/>
<text text-anchor="middle" x="597" y="-158.3" font-family="Times,serif" font-size="14.00">var.server_port</text>
</g>
<!-- [root] aws_lb_target_group.terrababa_asg (expand)&#45;&gt;[root] var.server_port -->
<g id="edge12" class="edge">
<title>[root] aws_lb_target_group.terrababa_asg (expand)&#45;&gt;[root] var.server_port</title>
<path fill="none" stroke="black" d="M498.05,-215.88C515.49,-206.55 537.27,-194.92 555.94,-184.94"/>
<polygon fill="black" stroke="black" points="557.66,-187.99 564.83,-180.19 554.36,-181.82 557.66,-187.99"/>
</g>
<!-- [root] provider[&quot;registry.terraform.io/hashicorp/aws&quot;] -->
<g id="node14" class="node">
<title>[root] provider[&quot;registry.terraform.io/hashicorp/aws&quot;]</title>
<polygon fill="none" stroke="black" points="442,-36 116.74,-18 442,0 767.26,-18 442,-36"/>
<text text-anchor="middle" x="442" y="-14.3" font-family="Times,serif" font-size="14.00">provider[&quot;registry.terraform.io/hashicorp/aws&quot;]</text>
</g>
<!-- [root] aws_security_group.terrababa_alb_sg (expand)&#45;&gt;[root] provider[&quot;registry.terraform.io/hashicorp/aws&quot;] -->
<g id="edge13" class="edge">
<title>[root] aws_security_group.terrababa_alb_sg (expand)&#45;&gt;[root] provider[&quot;registry.terraform.io/hashicorp/aws&quot;]</title>
<path fill="none" stroke="black" d="M255.86,-71.97C294.12,-61.08 343.55,-47.02 381.85,-36.12"/>
<polygon fill="black" stroke="black" points="383.18,-39.38 391.84,-33.27 381.26,-32.64 383.18,-39.38"/>
</g>
<!-- [root] aws_security_group.terrababa_sg (expand)&#45;&gt;[root] provider[&quot;registry.terraform.io/hashicorp/aws&quot;] -->
<g id="edge14" class="edge">
<title>[root] aws_security_group.terrababa_sg (expand)&#45;&gt;[root] provider[&quot;registry.terraform.io/hashicorp/aws&quot;]</title>
<path fill="none" stroke="black" d="M735.51,-215.67C721.06,-196.47 695.79,-165.41 669,-144 611.5,-98.06 534.79,-59.79 486.9,-38.14"/>
<polygon fill="black" stroke="black" points="488.28,-34.93 477.72,-34.04 485.42,-41.32 488.28,-34.93"/>
</g>
<!-- [root] aws_security_group.terrababa_sg (expand)&#45;&gt;[root] var.server_port -->
<g id="edge15" class="edge">
<title>[root] aws_security_group.terrababa_sg (expand)&#45;&gt;[root] var.server_port</title>
<path fill="none" stroke="black" d="M711.06,-215.88C690.51,-206.35 664.75,-194.41 642.91,-184.28"/>
<polygon fill="black" stroke="black" points="644.36,-181.1 633.82,-180.07 641.42,-187.45 644.36,-181.1"/>
</g>
<!-- [root] data.aws_subnets.default (expand)&#45;&gt;[root] data.aws_vpc.default (expand) -->
<g id="edge16" class="edge">
<title>[root] data.aws_subnets.default (expand)&#45;&gt;[root] data.aws_vpc.default (expand)</title>
<path fill="none" stroke="black" d="M336.25,-143.88C355.06,-134.47 378.58,-122.71 398.67,-112.67"/>
<polygon fill="black" stroke="black" points="400.24,-115.79 407.62,-108.19 397.11,-109.53 400.24,-115.79"/>
</g>
<!-- [root] data.aws_vpc.default (expand)&#45;&gt;[root] provider[&quot;registry.terraform.io/hashicorp/aws&quot;] -->
<g id="edge17" class="edge">
<title>[root] data.aws_vpc.default (expand)&#45;&gt;[root] provider[&quot;registry.terraform.io/hashicorp/aws&quot;]</title>
<path fill="none" stroke="black" d="M442,-71.7C442,-63.98 442,-54.71 442,-46.11"/>
<polygon fill="black" stroke="black" points="445.5,-46.1 442,-36.1 438.5,-46.1 445.5,-46.1"/>
</g>
<!-- [root] output.alb_dns_name -->
<g id="node12" class="node">
<title>[root] output.alb_dns_name</title>
<polygon fill="none" stroke="black" points="162,-468 0,-468 0,-432 168,-432 168,-462 162,-468"/>
<polyline fill="none" stroke="black" points="162,-468 162,-462 "/>
<polyline fill="none" stroke="black" points="168,-462 162,-462 "/>
<text text-anchor="middle" x="84" y="-446.3" font-family="Times,serif" font-size="14.00">output.alb_dns_name</text>
</g>
<!-- [root] output.alb_dns_name&#45;&gt;[root] aws_lb.terrababa_lb (expand) -->
<g id="edge18" class="edge">
<title>[root] output.alb_dns_name&#45;&gt;[root] aws_lb.terrababa_lb (expand)</title>
<path fill="none" stroke="black" d="M76.56,-431.63C64.47,-400.5 44.45,-334.19 71,-288 78.48,-274.99 90.51,-264.88 103.41,-257.14"/>
<polygon fill="black" stroke="black" points="105.38,-260.05 112.44,-252.15 101.99,-253.93 105.38,-260.05"/>
</g>
<!-- [root] output.public_ip -->
<g id="node13" class="node">
<title>[root] output.public_ip</title>
<polygon fill="none" stroke="black" points="929,-468 803,-468 803,-432 935,-432 935,-462 929,-468"/>
<polyline fill="none" stroke="black" points="929,-468 929,-462 "/>
<polyline fill="none" stroke="black" points="935,-462 929,-462 "/>
<text text-anchor="middle" x="869" y="-446.3" font-family="Times,serif" font-size="14.00">output.public_ip</text>
</g>
<!-- [root] output.public_ip&#45;&gt;[root] aws_instance.terrababa (expand) -->
<g id="edge19" class="edge">
<title>[root] output.public_ip&#45;&gt;[root] aws_instance.terrababa (expand)</title>
<path fill="none" stroke="black" d="M869,-431.7C869,-423.98 869,-414.71 869,-406.11"/>
<polygon fill="black" stroke="black" points="872.5,-406.1 869,-396.1 865.5,-406.1 872.5,-406.1"/>
</g>
<!-- [root] provider[&quot;registry.terraform.io/hashicorp/aws&quot;] (close) -->
<g id="node16" class="node">
<title>[root] provider[&quot;registry.terraform.io/hashicorp/aws&quot;] (close)</title>
<ellipse fill="none" stroke="black" cx="493" cy="-450" rx="291.65" ry="18"/>
<text text-anchor="middle" x="493" y="-446.3" font-family="Times,serif" font-size="14.00">[root] provider[&quot;registry.terraform.io/hashicorp/aws&quot;] (close)</text>
</g>
<!-- [root] provider[&quot;registry.terraform.io/hashicorp/aws&quot;] (close)&#45;&gt;[root] aws_autoscaling_group.terrababa_asg (expand) -->
<g id="edge20" class="edge">
<title>[root] provider[&quot;registry.terraform.io/hashicorp/aws&quot;] (close)&#45;&gt;[root] aws_autoscaling_group.terrababa_asg (expand)</title>
<path fill="none" stroke="black" d="M497.45,-431.7C499.45,-423.9 501.87,-414.51 504.1,-405.83"/>
<polygon fill="black" stroke="black" points="507.5,-406.66 506.6,-396.1 500.72,-404.92 507.5,-406.66"/>
</g>
<!-- [root] provider[&quot;registry.terraform.io/hashicorp/aws&quot;] (close)&#45;&gt;[root] aws_instance.terrababa (expand) -->
<g id="edge21" class="edge">
<title>[root] provider[&quot;registry.terraform.io/hashicorp/aws&quot;] (close)&#45;&gt;[root] aws_instance.terrababa (expand)</title>
<path fill="none" stroke="black" d="M580.21,-432.76C636.19,-422.34 709.11,-408.77 767.67,-397.86"/>
<polygon fill="black" stroke="black" points="768.49,-401.27 777.68,-396 767.21,-394.39 768.49,-401.27"/>
</g>
<!-- [root] provider[&quot;registry.terraform.io/hashicorp/aws&quot;] (close)&#45;&gt;[root] aws_lb_listener_rule.terrababa_asg (expand) -->
<g id="edge22" class="edge">
<title>[root] provider[&quot;registry.terraform.io/hashicorp/aws&quot;] (close)&#45;&gt;[root] aws_lb_listener_rule.terrababa_asg (expand)</title>
<path fill="none" stroke="black" d="M427.12,-432.41C386.75,-422.25 334.88,-409.19 292.54,-398.52"/>
<polygon fill="black" stroke="black" points="293.38,-395.13 282.83,-396.08 291.67,-401.91 293.38,-395.13"/>
</g>
<!-- [root] root -->
<g id="node17" class="node">
<title>[root] root</title>
<ellipse fill="none" stroke="black" cx="493" cy="-522" rx="58.49" ry="18"/>
<text text-anchor="middle" x="493" y="-518.3" font-family="Times,serif" font-size="14.00">[root] root</text>
</g>
<!-- [root] root&#45;&gt;[root] output.alb_dns_name -->
<g id="edge23" class="edge">
<title>[root] root&#45;&gt;[root] output.alb_dns_name</title>
<path fill="none" stroke="black" d="M443.26,-512.49C377.59,-501.25 260.65,-481.23 178.05,-467.1"/>
<polygon fill="black" stroke="black" points="178.6,-463.64 168.16,-465.4 177.42,-470.54 178.6,-463.64"/>
</g>
<!-- [root] root&#45;&gt;[root] output.public_ip -->
<g id="edge24" class="edge">
<title>[root] root&#45;&gt;[root] output.public_ip</title>
<path fill="none" stroke="black" d="M543.47,-512.88C601.33,-503.41 699.24,-486.85 792.86,-468.18"/>
<polygon fill="black" stroke="black" points="793.67,-471.59 802.78,-466.19 792.29,-464.73 793.67,-471.59"/>
</g>
<!-- [root] root&#45;&gt;[root] provider[&quot;registry.terraform.io/hashicorp/aws&quot;] (close) -->
<g id="edge25" class="edge">
<title>[root] root&#45;&gt;[root] provider[&quot;registry.terraform.io/hashicorp/aws&quot;] (close)</title>
<path fill="none" stroke="black" d="M493,-503.7C493,-495.98 493,-486.71 493,-478.11"/>
<polygon fill="black" stroke="black" points="496.5,-478.1 493,-468.1 489.5,-478.1 496.5,-478.1"/>
</g>
</g>
</svg>
